<svg width="28" height="31" viewBox="0 0 28 31" fill="none" xmlns="http://www.w3.org/2000/svg">
<path d="M1.99991 27.98V18.98C1.99991 15.7974 3.26419 12.7451 5.51463 10.4947C7.76507 8.24428 10.8173 6.98 13.9999 6.98C17.1825 6.98 20.2348 8.24428 22.4852 10.4947C24.7356 12.7451 25.9999 15.7974 25.9999 18.98V27.98H27.4999V30.98H0.499912V27.98H1.99991ZM4.99991 18.98H7.99991C7.99991 17.3887 8.63205 15.8626 9.75727 14.7374C10.8825 13.6121 12.4086 12.98 13.9999 12.98V9.98C11.613 9.98 9.32378 10.9282 7.63595 12.616C5.94812 14.3039 4.99991 16.593 4.99991 18.98ZM12.4999 0.979996H15.4999V5.48H12.4999V0.979996ZM25.6669 5.192L27.7869 7.313L24.6069 10.494L22.4849 8.374L25.6669 5.192ZM0.211914 7.313L2.33191 5.192L5.51391 8.37199L3.39391 10.496L0.211914 7.313Z" fill="#6E51E0"/>
<path d="M1.99991 27.98V18.98C1.99991 15.7974 3.26419 12.7451 5.51463 10.4947C7.76507 8.24428 10.8173 6.98 13.9999 6.98C17.1825 6.98 20.2348 8.24428 22.4852 10.4947C24.7356 12.7451 25.9999 15.7974 25.9999 18.98V27.98H27.4999V30.98H0.499912V27.98H1.99991ZM4.99991 18.98H7.99991C7.99991 17.3887 8.63205 15.8626 9.75727 14.7374C10.8825 13.6121 12.4086 12.98 13.9999 12.98V9.98C11.613 9.98 9.32378 10.9282 7.63595 12.616C5.94812 14.3039 4.99991 16.593 4.99991 18.98ZM12.4999 0.979996H15.4999V5.48H12.4999V0.979996ZM25.6669 5.192L27.7869 7.313L24.6069 10.494L22.4849 8.374L25.6669 5.192ZM0.211914 7.313L2.33191 5.192L5.51391 8.37199L3.39391 10.496L0.211914 7.313Z" fill="url(#paint0_linear_24056_16)" fill-opacity="0.24"/>
<defs>
<linearGradient id="paint0_linear_24056_16" x1="13.9999" y1="0.979996" x2="13.9999" y2="30.98" gradientUnits="userSpaceOnUse">
<stop stop-color="white"/>
<stop offset="1" stop-color="white" stop-opacity="0"/>
</linearGradient>
</defs>
</svg>
