<svg width="14" height="17" viewBox="0 0 14 17" fill="none" xmlns="http://www.w3.org/2000/svg">
<path d="M11.773 12.003L7 16.776L2.22701 12.003C1.28301 11.059 0.64014 9.85631 0.379696 8.54694C0.119253 7.23757 0.252931 5.88037 0.763825 4.64697C1.27472 3.41358 2.13988 2.35937 3.24991 1.61768C4.35994 0.87598 5.66498 0.480103 7 0.480103C8.33502 0.480103 9.64007 0.87598 10.7501 1.61768C11.8601 2.35937 12.7253 3.41358 13.2362 4.64697C13.7471 5.88037 13.8808 7.23757 13.6203 8.54694C13.3599 9.85631 12.717 11.059 11.773 12.003ZM7 8.73004C7.39809 8.73004 7.77988 8.5719 8.06137 8.29041C8.34286 8.00891 8.501 7.62712 8.501 7.22903C8.501 6.83094 8.34286 6.44917 8.06137 6.16768C7.77988 5.88619 7.39809 5.72804 7 5.72804C6.60191 5.72804 6.22013 5.88619 5.93864 6.16768C5.65715 6.44917 5.499 6.83094 5.499 7.22903C5.499 7.62712 5.65715 8.00891 5.93864 8.29041C6.22013 8.5719 6.60191 8.73004 7 8.73004Z" fill="#6E51E0"/>
</svg>
